<svg xmlns="http://www.w3.org/2000/svg" width="389.971" height="373" viewBox="0 0 389.971 373">
  <defs>
    <style>
      .cls-1 {
        fill: #42be56;
        fill-rule: evenodd;
      }
    </style>
  </defs>
  <path id="Shape_1_копия_83" data-name="Shape 1 копия 83" class="cls-1" d="M1179.51,304.6a6.948,6.948,0,0,0-9.9,0l-72.62,73.343a7.147,7.147,0,0,0,0,10.015,7.006,7.006,0,0,0,9.91,0l72.61-73.358A7.129,7.129,0,0,0,1179.51,304.6Zm19.74,19.641a6.946,6.946,0,0,0-9.91,0l-72.59,73.343a7.11,7.11,0,0,0,0,10,6.994,6.994,0,0,0,9.9,0l72.6-73.343A7.11,7.11,0,0,0,1199.25,324.24Zm-68.49,123.846,90.12-91.045a7.11,7.11,0,0,0,0-10.015,6.948,6.948,0,0,0-9.9,0l-90.12,91.037a36.925,36.925,0,0,1-42.26,7.336,6.942,6.942,0,0,0-8.25,1.694l-30.63,34.855a0.1,0.1,0,0,1-.03.031,0.216,0.216,0,0,1-.05.038L907.282,632.649a0.389,0.389,0,0,1-.111.137c-0.427.5-.841,0.97-1.254,1.374a22.254,22.254,0,0,1-31.693,0,22.759,22.759,0,0,1,.007-32,18.209,18.209,0,0,1,1.366-1.29c0.037-.023.081-0.068,0.118-0.091l82.75-74.2a7.111,7.111,0,0,0,.59-9.977,6.915,6.915,0,0,0-9.877-.611l-82.7,74.152c-0.789.687-1.506,1.329-2.162,2a37.046,37.046,0,0,0,0,52.023,36.173,36.173,0,0,0,51.506,0c0.665-.657,1.315-1.382,1.986-2.168L1018.68,527.2l100.86,114.808c0.67,0.779,1.33,1.5,2,2.161a36.165,36.165,0,0,0,51.5,0,37.09,37.09,0,0,0,0-52.008c-0.67-.686-1.38-1.328-2.15-2.015l-116.08-104.06,22.71-25.854A50.887,50.887,0,0,0,1130.76,448.086Zm30.87,152.693a1.463,1.463,0,0,0,.13.091c0.51,0.451.96,0.855,1.37,1.29a22.8,22.8,0,0,1,0,32,22.249,22.249,0,0,1-31.7-.015,16.149,16.149,0,0,1-1.26-1.359c-0.03-.038-0.06-0.092-0.09-0.137L1028.04,516.558l17.47-19.885ZM1158.49,284a6.934,6.934,0,0,0-9.9,0l-90.14,91.045a52.109,52.109,0,0,0-12.03,53.777l-27.75,24.863-26.644-23.916a71.681,71.681,0,0,0-13.111-82.747c-21.734-21.946-46.894-37.366-70.85-43.48-25.019-6.344-46.458-2.1-60.4,11.969s-18.139,35.732-11.843,61.022c6.033,24.183,21.322,49.6,43.042,71.549a69.865,69.865,0,0,0,81.923,13.229s26.068,29.663,26.406,30.06a6.981,6.981,0,0,0,9.878.588l62.365-55.892a7.136,7.136,0,0,0,1.66-8.359,37.866,37.866,0,0,1,7.26-42.686L1158.49,294A7.12,7.12,0,0,0,1158.49,284ZM993.008,476.681l-25.485-29.007a6.936,6.936,0,0,0-8.9-1.313,56.067,56.067,0,0,1-69.853-8.3c-19.955-20.137-33.937-43.228-39.363-64.984-5.042-20.251-2.134-37.144,8.171-47.564s27.02-13.336,47.057-8.236c21.549,5.48,44.413,19.6,64.375,39.762a57.487,57.487,0,0,1,8.187,70.541,7.117,7.117,0,0,0,1.315,9.008l29.621,26.549Z" transform="translate(-832.969 -281.938)"/>
</svg>
