<?xml version="1.0" encoding="UTF-8"?>
<svg width="14px" height="13px" viewBox="0 0 14 13" version="1.1" xmlns="http://www.w3.org/2000/svg" xmlns:xlink="http://www.w3.org/1999/xlink">
    <!-- Generator: Sketch 52.2 (67145) - http://www.bohemiancoding.com/sketch -->
    <title>like</title>
    <desc>Created with Sketch.</desc>
    <g id="art-board" stroke="none" stroke-width="1" fill="none" fill-rule="evenodd">
        <g id="home_page_@front" transform="translate(-1502.000000, -37.000000)" fill="#212126">
            <g id="header-fixed-top">
                <g id="wish-list" transform="translate(1502.000000, 36.000000)">
                    <path d="M11.2884018,7.3315729 C9.67806892,9.14397245 7.85682348,11.1247991 6.97418916,12 C6.10055111,11.1206659 4.30129656,9.13983927 2.69496207,7.310907 C1.76834598,6.32204363 1.76834598,4.71423651 2.69496207,3.72640643 C3.13477985,3.25832377 3.71753841,3 4.33428289,3 C4.95202695,3 5.53378593,3.25832377 5.93461986,3.68197474 L6.20950597,4.01159587 C6.38643267,4.22445465 6.64032748,4.35361653 6.91121525,4.36808266 C7.18210302,4.38358209 7.44799286,4.28541906 7.64691045,4.09425947 L7.99076798,3.76360505 C8.0037626,3.75223881 8.01675722,3.73983927 8.02875225,3.72640643 C8.90738822,2.78920781 10.4287579,2.78920781 11.3073939,3.72640643 C12.23401,4.71423651 12.23401,6.32204363 11.2884018,7.3315729 M12.7455,2.3109 C11.9255,1.4649 10.8325,0.9999 9.6695,0.9999 C8.6895,0.9999 7.7605,1.3299 7.0015,1.9389 C6.2425,1.3299 5.3135,0.9999 4.3335,0.9999 C3.1695,0.9999 2.0775,1.4649 1.2575,2.3109 C-0.4155,4.0349 -0.4155,6.8399 1.2345,8.5399 C6.1735,13.9839 6.4485,13.9889 6.9465,13.9989 C6.9695,13.9989 6.9895,13.9999 7.0115,13.9999 C7.4915,13.9999 7.9535,13.7829 12.7455,8.5639 C14.4185,6.8399 14.4185,4.0349 12.7455,2.3109" id="like"></path>
                </g>
            </g>
        </g>
    </g>
</svg>