<?xml version="1.0" encoding="UTF-8"?>
<svg width="12px" height="16px" viewBox="0 0 12 16" version="1.1" xmlns="http://www.w3.org/2000/svg" xmlns:xlink="http://www.w3.org/1999/xlink">
    <!-- Generator: Sketch 52.2 (67145) - http://www.bohemiancoding.com/sketch -->
    <title>phone_icons</title>
    <desc>Created with Sketch.</desc>
    <g id="art-board" stroke="none" stroke-width="1" fill="none" fill-rule="evenodd">
        <g id="home_page_@front" transform="translate(-1305.000000, -986.000000)" fill="#212126">
            <g id="body" transform="translate(0.000000, 109.000000)">
                <g id="first_screen" transform="translate(315.000000, 0.000000)">
                    <g id="widget_personal_need_stylish" transform="translate(990.000000, 749.000000)">
                        <g id="input_phone" transform="translate(0.000000, 126.000000)">
                            <g id="phone_icons" transform="translate(0.000000, 2.000000)">
                                <path d="M2,2 L2,14 L10,14 L10,2 L2,2 Z M2,0 L10,0 C11.1045695,0 12,0.8954305 12,2 L12,14 C12,15.1045695 11.1045695,16 10,16 L2,16 C0.8954305,16 1.3527075e-16,15.1045695 0,14 L0,2 C-1.3527075e-16,0.8954305 0.8954305,0 2,0 Z" id="Rectangle" fill-rule="nonzero"></path>
                                <circle id="Oval" cx="6" cy="11" r="1"></circle>
                            </g>
                        </g>
                    </g>
                </g>
            </g>
        </g>
    </g>
</svg>