<?xml version="1.0" encoding="UTF-8"?>
<svg width="8px" height="22px" viewBox="0 0 8 22" version="1.1" xmlns="http://www.w3.org/2000/svg" xmlns:xlink="http://www.w3.org/1999/xlink">
    <!-- Generator: Sketch 52.2 (67145) - http://www.bohemiancoding.com/sketch -->
    <title>dresses</title>
    <desc>Created with Sketch.</desc>
    <g id="art-board" stroke="none" stroke-width="1" fill="none" fill-rule="evenodd">
        <g id="home_page_@front" transform="translate(-844.000000, -167.000000)" fill="#212126">
            <g id="body" transform="translate(0.000000, 109.000000)">
                <g id="first_screen" transform="translate(315.000000, 0.000000)">
                    <g id="Search_Dresses_all_pages" transform="translate(284.000000, 45.000000)">
                        <g id="select_dresses" transform="translate(225.000000, 0.000000)">
                            <path d="M27.8310527,14.8926403 C28.1360527,14.4166403 28.0230527,14.0456403 27.5290527,13.7746403 L25.9310527,13.0076403 C25.4310527,12.8666403 24.7940527,14.7236403 24.0000527,14.7476403 C23.2060527,14.7236403 22.5690527,12.8666403 22.0690527,13.0076403 L20.4700527,13.7746403 C19.9770527,14.0456403 19.8640527,14.4166403 20.1680527,14.8926403 C21.1090527,16.3626403 21.5800527,17.5936403 21.5800527,18.5866403 C21.5800527,20.4516403 20.0920527,23.1656403 20.0970527,25.4646403 C20.0940527,26.9656403 20.7690527,29.9786403 21.5530527,34.5066403 C22.4260527,34.8296403 23.2000527,34.9906403 23.9750527,34.9976403 L23.9750527,34.9996403 C23.9830527,34.9996403 23.9920527,34.9986403 24.0000527,34.9986403 C24.0080527,34.9986403 24.0170527,34.9996403 24.0250527,34.9996403 L24.0250527,34.9976403 C24.8000527,34.9906403 25.5740527,34.8296403 26.4470527,34.5066403 C27.2300527,29.9786403 27.9050527,26.9656403 27.9020527,25.4646403 C27.9070527,23.1656403 26.4200527,20.4516403 26.4200527,18.5866403 C26.4200527,17.5936403 26.8910527,16.3626403 27.8310527,14.8926403" id="dresses"></path>
                        </g>
                    </g>
                </g>
            </g>
        </g>
    </g>
</svg>