<?xml version="1.0" encoding="UTF-8"?>
<svg width="14px" height="15px" viewBox="0 0 14 15" version="1.1" xmlns="http://www.w3.org/2000/svg" xmlns:xlink="http://www.w3.org/1999/xlink">
    <!-- Generator: Sketch 52.2 (67145) - http://www.bohemiancoding.com/sketch -->
    <title>search</title>
    <desc>Created with Sketch.</desc>
    <g id="art-board" stroke="none" stroke-width="1" fill="none" fill-rule="evenodd">
        <g id="home_page_@front" transform="translate(-1449.000000, -37.000000)" fill="#212126">
            <g id="header-fixed-top">
                <path d="M1451.13731,44.0352649 C1450.56543,41.9017494 1451.83216,39.7092472 1453.96569,39.1373771 C1456.09823,38.5655069 1458.29175,39.8312195 1458.86262,41.9647351 C1459.4345,44.0982506 1458.16877,46.2917526 1456.03524,46.8626229 C1453.9017,47.4344931 1451.70918,46.1687805 1451.13731,44.0352649 Z M1463.0007,50.673 L1459.5517,46.911 C1460.7977,45.459 1461.3297,43.437 1460.7977,41.448 C1459.9387,38.248 1456.6497,36.348 1453.4487,37.206 C1450.2477,38.064 1448.3487,41.354 1449.2057,44.554 C1450.0637,47.756 1453.3537,49.655 1456.5547,48.797 C1457.0777,48.657 1457.5617,48.446 1458.0097,48.186 L1461.5037,52 L1463.0007,50.673 Z" id="search"></path>
            </g>
        </g>
    </g>
</svg>