<?xml version="1.0" encoding="UTF-8"?>
<svg width="13px" height="17px" viewBox="0 0 13 17" version="1.1" xmlns="http://www.w3.org/2000/svg" xmlns:xlink="http://www.w3.org/1999/xlink">
    <!-- Generator: Sketch 52.2 (67145) - http://www.bohemiancoding.com/sketch -->
    <title>icon_pin</title>
    <desc>Created with Sketch.</desc>
    <g id="art-board" stroke="none" stroke-width="1" fill="none" fill-rule="evenodd">
        <g id="home_page_@front" transform="translate(-1439.000000, -5152.000000)" fill="#FFFFFF">
            <g id="footer" transform="translate(0.000000, 4992.000000)">
                <g id="our_social_media" transform="translate(1305.000000, 144.000000)">
                    <g id="pinterest" transform="translate(116.000000, 0.000000)">
                        <path d="M30.9241377,20.738 C30.5391278,17.903 28.0220631,16 24.6599766,16 C24.3319682,16 23.9969596,16.018 23.6669511,16.056 C20.1108597,16.46 18.0958078,19.379 18.0058055,21.92 C17.9238034,24.201 18.7098236,25.494 20.4068673,25.877 L20.4948695,25.896 L20.5398707,25.816 C21.094885,24.82 20.7878771,24.305 20.4908694,23.807 C20.3418656,23.558 20.1878616,23.3 20.1348603,22.969 C19.9378552,21.73 20.2828641,20.507 21.1058852,19.524 C22.0169087,18.436 23.431945,17.761 24.7969801,17.761 C25.8730078,17.761 26.8330325,18.164 27.5720515,18.927 C28.720081,20.11 28.6740798,22.677 27.9740618,24.377 C27.3610461,25.863 26.3250194,26.608 25.1699897,26.378 C24.753979,26.293 24.4759719,26.122 24.3209679,25.856 C23.9719589,25.253 24.2999674,24.204 24.6179755,23.189 C25.062987,21.769 25.5229988,20.3 24.2489661,19.788 C23.3999442,19.444 22.5929235,19.788 22.0909106,20.683 C21.5328962,21.68 21.486895,23.081 21.9799077,23.967 C21.836904,24.675 21.6558994,25.358 21.4648945,26.081 C20.9278807,28.114 20.3728664,30.217 20.7298756,32.795 L20.7588763,33 L20.9238806,32.878 C22.4799206,31.73 23.0189344,29.614 23.4519456,27.341 C23.585949,27.427 23.7089522,27.513 23.8269552,27.598 C24.3349683,27.956 24.7729795,28.264 25.5559997,28.326 C25.685003,28.336 25.8120062,28.341 25.9370095,28.341 C27.2650436,28.341 28.449074,27.779 29.3620975,26.717 C30.62513,25.244 31.2231454,22.953 30.9241377,20.738" id="icon_pin"></path>
                    </g>
                </g>
            </g>
        </g>
    </g>
</svg>