<?xml version="1.0" encoding="UTF-8"?>
<svg width="40px" height="36px" viewBox="0 0 40 36" version="1.1" xmlns="http://www.w3.org/2000/svg" xmlns:xlink="http://www.w3.org/1999/xlink">
    <!-- Generator: Sketch 52.2 (67145) - http://www.bohemiancoding.com/sketch -->
    <title>icon</title>
    <desc>Created with Sketch.</desc>
    <g id="art-board" stroke="none" stroke-width="1" fill="none" fill-rule="evenodd" opacity="0.0957314312">
        <g id="home_page_@front" transform="translate(-610.000000, -2982.000000)" fill="#212126">
            <g id="body" transform="translate(0.000000, 109.000000)">
                <g id="testimonials" transform="translate(315.000000, 2422.000000)">
                    <path d="M295.804533,487 L295.804533,484.388013 C299.175929,482.646679 301.57035,480.716099 302.987868,478.596215 C304.405387,476.47633 305.114135,474.242914 305.114135,471.895899 C305.114135,469.776015 304.616096,467.996853 303.620002,466.55836 C302.623908,465.119867 301.20641,463.908522 299.367467,462.92429 L295.459733,460.880126 L295,459.744479 L298.677867,453.498423 C299.214226,452.665611 299.673955,452.041012 300.057068,451.624606 C300.440181,451.2082 300.93822,451 301.551201,451 C302.164182,451 303.121951,451.340691 304.424535,452.022082 C306.953082,453.460575 308.906929,455.42901 310.286136,457.927445 C311.665343,460.42588 312.354937,463.11355 312.354937,465.990536 C312.354937,470.003175 311.090682,473.845408 308.562136,477.51735 C306.033589,481.189293 301.781098,484.350144 295.804533,487 Z M318.449597,487 L318.449597,484.388013 C321.820992,482.646679 324.215413,480.716099 325.632932,478.596215 C327.05045,476.47633 327.759199,474.242914 327.759199,471.895899 C327.759199,469.776015 327.261159,467.996853 326.265065,466.55836 C325.268971,465.119867 323.851474,463.908522 322.012531,462.92429 L318.104797,460.880126 L317.645063,459.744479 L321.322931,453.498423 C321.859289,452.665611 322.319018,452.041012 322.702131,451.624606 C323.085244,451.2082 323.583284,451 324.196265,451 C324.809246,451 325.767014,451.340691 327.069599,452.022082 C329.598145,453.460575 331.551992,455.42901 332.9312,457.927445 C334.310407,460.42588 335,463.11355 335,465.990536 C335,470.003175 333.735746,473.845408 331.207199,477.51735 C328.678653,481.189293 324.426161,484.350144 318.449597,487 Z" id="icon"></path>
                </g>
            </g>
        </g>
    </g>
</svg>