<?xml version="1.0" encoding="UTF-8"?>
<svg width="12px" height="13px" viewBox="0 0 12 13" version="1.1" xmlns="http://www.w3.org/2000/svg" xmlns:xlink="http://www.w3.org/1999/xlink">
    <!-- Generator: Sketch 52.2 (67145) - http://www.bohemiancoding.com/sketch -->
    <title>icon_brands</title>
    <desc>Created with Sketch.</desc>
    <g id="art-board" stroke="none" stroke-width="1" fill="none" fill-rule="evenodd">
        <g id="home_page_@front" transform="translate(-775.000000, -3243.000000)" fill="#212126">
            <g id="body" transform="translate(0.000000, 109.000000)">
                <g id="brands" transform="translate(315.000000, 3118.000000)">
                    <g id="select_brands" transform="translate(440.000000, 0.000000)">
                        <g id="icon_brands" transform="translate(20.000000, 16.000000)">
                            <path d="M10.9997,11.5025 C10.9997,12.9995 9.8107,12.9865 9.5787,12.9865 L2.4217,12.9865 C2.1887,12.9865 0.9997,13.2365 0.9997,11.5025 L0.9997,11.4715 C0.9997,11.2025 1.1887,10.9865 1.4217,10.9865 L10.5787,10.9865 C10.8107,10.9865 10.9997,11.2025 10.9997,11.4715 L10.9997,11.5025 Z" id="Fill-1"></path>
                            <path d="M11.9997,6.5846 C11.9997,4.7856 10.5687,3.3226 8.8117,3.3226 C8.5977,3.3226 8.5867,3.3456 8.3847,3.3866 C8.7077,4.1116 8.8977,5.0136 8.8977,5.9976 C8.8977,6.9166 8.7317,7.7616 8.4467,8.4616 L7.3717,8.4616 C7.7017,7.8146 7.9077,6.9396 7.9077,5.9976 C7.9077,4.0486 7.0257,2.3996 5.9827,2.3996 C4.9397,2.3996 4.0587,4.0496 4.0587,5.9986 C4.0587,6.9396 4.2647,7.8146 4.5947,8.4616 L3.6197,8.4616 C3.3337,7.7616 3.0677,6.9166 3.0677,5.9976 C3.0677,5.0106 3.2597,4.1086 3.5847,3.3826 C3.3927,3.3446 3.1927,3.3236 2.9887,3.3236 C1.2307,3.3236 -0.0003,4.7856 -0.0003,6.5846 C-0.0003,7.5886 0.4477,8.4876 1.1477,9.0866 C1.1297,9.1536 1.1227,9.2266 1.1227,9.2996 L1.1227,9.5506 C1.1227,10.0166 1.4877,10.3996 1.9417,10.3996 L10.0227,10.3996 C10.4787,10.3996 10.8157,10.0166 10.8157,9.5506 L10.8157,9.2996 C10.8157,9.2346 10.8237,9.1706 10.8117,9.1096 C11.5257,8.5116 11.9997,7.6026 11.9997,6.5846" id="crown"></path>
                            <path d="M5.9997,-0.0004 C5.4477,-0.0004 4.9997,0.4486 4.9997,0.9996 C4.9997,1.5516 5.4477,1.9996 5.9997,1.9996 C6.5507,1.9996 6.9997,1.5516 6.9997,0.9996 C6.9997,0.4486 6.5507,-0.0004 5.9997,-0.0004" id="disc"></path>
                        </g>
                    </g>
                </g>
            </g>
        </g>
    </g>
</svg>