<?xml version="1.0" encoding="UTF-8"?>
<svg width="21px" height="21px" viewBox="0 0 21 21" version="1.1" xmlns="http://www.w3.org/2000/svg" xmlns:xlink="http://www.w3.org/1999/xlink">
    <!-- Generator: Sketch 52.2 (67145) - http://www.bohemiancoding.com/sketch -->
    <title>icon_instagram</title>
    <desc>Created with Sketch.</desc>
    <g id="art-board" stroke="none" stroke-width="1" fill="none" fill-rule="evenodd">
        <g id="home_page_@front" transform="translate(-1319.000000, -5149.000000)" fill="#FFFFFF">
            <g id="footer" transform="translate(0.000000, 4992.000000)">
                <g id="our_social_media" transform="translate(1305.000000, 144.000000)">
                    <g id="instagram">
                        <g id="icon_instagram" transform="translate(14.000000, 13.000000)">
                            <path d="M7,2 C4.23857625,2 2,4.23857625 2,7 L2,14 C2,16.7614237 4.23857625,19 7,19 L14,19 C16.7614237,19 19,16.7614237 19,14 L19,7 C19,4.23857625 16.7614237,2 14,2 L7,2 Z M7,0 L14,0 C17.8659932,-7.10171439e-16 21,3.13400675 21,7 L21,14 C21,17.8659932 17.8659932,21 14,21 L7,21 C3.13400675,21 4.73447626e-16,17.8659932 0,14 L0,7 C-4.73447626e-16,3.13400675 3.13400675,7.10171439e-16 7,0 Z" id="Rectangle-3" fill-rule="nonzero"></path>
                            <path d="M10.5,15 C8.01471863,15 6,12.9852814 6,10.5 C6,8.01471863 8.01471863,6 10.5,6 C12.9852814,6 15,8.01471863 15,10.5 C15,12.9852814 12.9852814,15 10.5,15 Z M10.5,13 C11.8807119,13 13,11.8807119 13,10.5 C13,9.11928813 11.8807119,8 10.5,8 C9.11928813,8 8,9.11928813 8,10.5 C8,11.8807119 9.11928813,13 10.5,13 Z" id="Oval" fill-rule="nonzero"></path>
                            <circle id="Oval-2" cx="15.5" cy="5.5" r="1.5"></circle>
                        </g>
                    </g>
                </g>
            </g>
        </g>
    </g>
</svg>