<?xml version="1.0" encoding="UTF-8"?>
<svg width="7px" height="15px" viewBox="0 0 7 15" version="1.1" xmlns="http://www.w3.org/2000/svg" xmlns:xlink="http://www.w3.org/1999/xlink">
    <!-- Generator: Sketch 52.2 (67145) - http://www.bohemiancoding.com/sketch -->
    <title>icon_fb</title>
    <desc>Created with Sketch.</desc>
    <g id="art-board" stroke="none" stroke-width="1" fill="none" fill-rule="evenodd">
        <g id="home_page_@front" transform="translate(-1384.000000, -5152.000000)" fill="#FFFFFF">
            <g id="footer" transform="translate(0.000000, 4992.000000)">
                <g id="our_social_media" transform="translate(1305.000000, 144.000000)">
                    <g id="facebook" transform="translate(58.000000, 0.000000)">
                        <path d="M25.362,31.0001448 L25.362,23.9691448 L27.896,23.9691448 L28,21.4431448 L25.362,21.4431448 L25.362,19.5911448 C25.362,19.2401448 25.421,18.9631448 25.538,18.7591448 C25.656,18.5561448 25.937,18.4611448 26.38,18.4751448 L27.938,18.4751448 L28,16.1181448 C27.806,16.0891448 27.609,16.0721448 27.408,16.0641448 C27.207,16.0581448 27.024,16.0471448 26.858,16.0331448 C26.664,16.0191448 26.47,16.0121448 26.276,16.0121448 C25.667,15.9701448 25.144,16.0371448 24.708,16.2121448 C24.271,16.3881448 23.911,16.6331448 23.628,16.9491448 C23.344,17.2651448 23.133,17.6261448 22.994,18.0331448 C22.856,18.4401448 22.786,18.8541448 22.786,19.2751448 L22.786,21.4431448 L21,21.4431448 L21,23.9691448 L22.786,23.9691448 L22.786,31.0001448 L25.362,31.0001448 Z" id="icon_fb"></path>
                    </g>
                </g>
            </g>
        </g>
    </g>
</svg>