<svg xmlns="http://www.w3.org/2000/svg" width="1232" height="974.967" viewBox="0 0 1232 974.967">
  <defs>
    <style>
      .cls-1 {
        fill: #0088e4;
        fill-rule: evenodd;
      }
    </style>
  </defs>
  <path id="ic_Safe_копия_15" data-name="ic_Safe копия 15" class="cls-1" d="M2263.87,1241.43V369.1c0-51.28-51.3-51.28-51.3-51.28H1083.22s-51.33,0-51.33,51.28V1241.43c0,51.35,51.33,51.35,51.33,51.35H2212.57S2263.87,1292.78,2263.87,1241.43Zm-1180.65,0V369.1H2212.57V1241.43H1083.22Zm51.35-102.59V471.776c0-51.352,51.36-51.352,51.36-51.352h872.62s51.34,0,51.34,51.352V1138.84c0,51.36-51.34,51.36-51.34,51.36H1185.93S1134.57,1190.2,1134.57,1138.84Zm925.59,0V471.776H1185.93V1138.84h874.23ZM1237.33,625.9h51.34v51.316h-51.34V625.9Zm102.67,0h51.33v51.316H1340V625.9ZM1237.33,728.526h51.34v51.316h-51.34V728.526Zm205.34,0H1494v51.316h-51.33V728.526ZM1237.33,831.158h51.34v51.316h-51.34V831.158Zm102.67,0h51.33v51.316H1340V831.158Zm0,102.631h51.33v51.316H1340V933.789ZM1827.67,625.9c99.22,0,179.66,80.412,179.66,179.605s-80.44,179.605-179.66,179.605S1648,904.693,1648,805.5,1728.44,625.9,1827.67,625.9Zm0,51.316A128.289,128.289,0,1,1,1699.33,805.5,128.313,128.313,0,0,1,1827.67,677.211Zm0,51.315a76.974,76.974,0,1,1-77,76.974A76.991,76.991,0,0,1,1827.67,728.526Zm0,51.316A25.658,25.658,0,1,1,1802,805.5,25.66,25.66,0,0,1,1827.67,779.842Zm-51.49,51.107H1570.89a25.639,25.639,0,1,1,0-51.277h205.29A25.639,25.639,0,1,1,1776.18,830.949ZM1442.67,625.9H1494v51.316h-51.33V625.9ZM1340,728.526h51.33v51.316H1340V728.526Zm102.67,102.632H1494v51.316h-51.33V831.158Zm564.66-256.579h154V625.9h-154V574.579Zm0,410.526h154v51.315h-154V985.105Z" transform="translate(-1031.88 -317.813)"/>
</svg>
